<?xml version="1.0" encoding="UTF-8" standalone="no"?><svg xmlns="http://www.w3.org/2000/svg" height="60px" width="270px" version="1.1" viewBox="0 0 270 60"><path d="m5.04 57.88v-39.28h-3.84v39.28h3.84zm-2-47.08c1.92 0 3.12-1.52 3.12-3.28 0-1.84-1.28-3.36-3.04-3.36s-3.12 1.6-3.12 3.36 1.2 3.28 2.96 3.28h0.08zm11.18 47.08h3.84v-23.04c1.92 0.56 4.08 0.64 6.56 0.64 6.64 0 12.4-2.08 15.84-6 2.48-2.72 3.76-6.16 3.76-10.8 0-4.48-1.52-8.08-4.16-10.56-2.96-2.88-7.84-4.56-14.24-4.56-4.56 0-8.48 0.48-11.6 1.04v53.28zm3.84-50.48c1.44-0.32 4.08-0.64 7.6-0.64 8.56 0 14.72 3.84 14.72 12.32 0 8.56-5.76 13.2-15.44 13.2-2.64 0-5.04-0.16-6.88-0.8v-24.08zm30.98 50.48h3.84v-23.44c0-1.6 0.08-2.64 0.48-3.84 1.68-4.72 6.16-8.64 11.6-8.64 7.84 0 10.56 6.32 10.56 13.2v22.72h3.84v-23.12c0-14.32-9.76-16.16-13.36-16.16-2.88 0-5.52 0.88-7.76 2.24s-4.08 3.36-5.2 5.52h-0.16v-25.36h-3.84v56.88zm52.66 0.88c8.48 0 18.32-6.16 18.32-20.4 0-11.76-7.2-19.76-17.84-19.76-9.52 0-18.16 7.28-18.16 20.4 0 12 7.68 19.76 17.6 19.76h0.08zm0.08-3.2c-7.84 0-13.92-7.2-13.92-16.8 0-8.24 4.4-16.96 14.24-16.96 10.16 0 14.08 9.68 14.08 16.72 0 9.84-6.32 17.04-14.32 17.04h-0.08zm23.3 2.32h3.84v-23.84c0-1.2 0.24-2.48 0.48-3.36 1.52-5.04 6.16-8.88 11.52-8.88 7.92 0 10.64 6.32 10.64 13.36v22.72h3.84v-23.04c0-14.4-9.76-16.24-13.44-16.24-6.24 0-11.12 3.44-13.2 7.76h-0.16l-0.24-6.88h-3.6c0.24 3.04 0.32 5.68 0.32 9.2v29.2zm67.06-19.6c0.16-0.72 0.16-1.28 0.16-2.32 0-5.52-2.4-17.36-14.96-17.36-9.92 0-17.28 8-17.28 20.8 0 11.28 6.88 19.28 17.92 19.28 6.72 0 10.64-1.68 12.08-2.48l-0.96-2.96c-2.16 1.04-5.04 2.16-10.64 2.16-7.92 0-14.64-4.88-14.64-17.12h28.32zm-28.08-3.04c0.72-5.92 4.32-13.44 12.8-13.44 9.28 0 11.52 8.08 11.44 13.44h-24.24zm45.94-19.237c0-8.8355 7.17-16.003 16-16.003h28c8.83 0 16 7.1707 16 16.003v27.994c0 8.836-7.17 16.003-16 16.003h-28c-8.83 0-16-7.171-16-16.003v-27.994zm3 0v27.994c0 7.173 5.82 13.003 13 13.003h28c7.17 0 13-5.822 13-13.003v-27.994c0-7.1727-5.82-13.003-13-13.003h-28c-7.17 0-13 5.8217-13 13.003zm7.89 27.03c1.57 1.137 4.63 1.967 7.25 1.967 6.48 0 9.62-3.802 9.62-8.085 0-4.37-2.65-6.599-7.64-8.566-4.37-1.661-6.3-3.321-6.3-6.555 0-2.317 1.66-5.376 6.56-5.376 2.62 0 4.55 0.83 5.36 1.399l0.81-1.792c-1.03-0.656-3.19-1.355-6.03-1.355-5.18 0-8.82 3.147-8.82 7.473 0 3.977 2.92 6.425 7.78 8.129 4.42 1.617 6.17 3.584 6.17 6.861 0 3.628-2.79 6.119-7.33 6.119-2.52 0-4.91-0.787-6.62-1.923l-0.81 1.704zm35.9-14.908h-12.11v-11.655h12.83v-1.8h-14.99v30.33h15.71v-1.8h-13.55v-13.275h12.11v-1.8z"/></svg>
